PathFileType	4	(X/Y/Z)	..\data\2014030\dynamic\2014030_C5_02.trc
DataRate	CameraRate	NumFrames	NumMarkers	Units	OrigDataRate	OrigDataStartFrame	OrigNumFrames
100.000000	100.000000	4	52	mm	100.000000	77	155
Frame#	Time	L_IAS			L_IPS			R_IPS			R_IAS			L_FTC			L_FLE			L_FME			L_FAX			L_TTC			L_FAL			L_TAM			L_FCC			L_FM1			L_FM2			L_FM5			R_FTC			R_FLE			R_FME			R_FAX			R_TTC			R_FAL			R_TAM			R_FCC			R_FM1			R_FM2			R_FM5			CV7			TV10			SXS			SJN			L_SIA			L_SRS			L_SAA			L_SAE			L_HLE			L_HME			L_UOA			L_RSP			L_UHE			L_HM2			L_HM5			R_SIA			R_SRS			R_SAA			R_SAE			R_HLE			R_HME			R_UOA			R_RSP			R_UHE			R_HM2			R_HM5			
		X1	Y1	Z1	X2	Y2	Z2	X3	Y3	Z3	X4	Y4	Z4	X5	Y5	Z5	X6	Y6	Z6	X7	Y7	Z7	X8	Y8	Z8	X9	Y9	Z9	X10	Y10	Z10	X11	Y11	Z11	X12	Y12	Z12	X13	Y13	Z13	X14	Y14	Z14	X15	Y15	Z15	X16	Y16	Z16	X17	Y17	Z17	X18	Y18	Z18	X19	Y19	Z19	X20	Y20	Z20	X21	Y21	Z21	X22	Y22	Z22	X23	Y23	Z23	X24	Y24	Z24	X25	Y25	Z25	X26	Y26	Z26	X27	Y27	Z27	X28	Y28	Z28	X29	Y29	Z29	X30	Y30	Z30	X31	Y31	Z31	X32	Y32	Z32	X33	Y33	Z33	X34	Y34	Z34	X35	Y35	Z35	X36	Y36	Z36	X37	Y37	Z37	X38	Y38	Z38	X39	Y39	Z39	X40	Y40	Z40	X41	Y41	Z41	X42	Y42	Z42	X43	Y43	Z43	X44	Y44	Z44	X45	Y45	Z45	X46	Y46	Z46	X47	Y47	Z47	X48	Y48	Z48	X49	Y49	Z49	X50	Y50	Z50	X51	Y51	Z51	X52	Y52	Z52	

78	0.77	802.198425292969	932.6370849609377	-383.6709594726563	599.2739257812501	980.0949707031252	-317.0917663574219	596.7432250976564	977.6865844726565	-202.2191467285157	795.4931640625002	934.8572387695315	-127.251220703125	729.9179687500001	866.838317871094	-433.8038330078126	745.9444580078126	462.5468139648439	-357.4809570312501	733.4772338867189	469.8739318847657	-238.2273406982422	734.7537231445314	400.0289611816407	-354.4138488769532	785.9658813476565	407.1734924316407	-290.1932983398438	695.2313232421876	66.56192016601564	-320.1669006347657	699.5267944335939	83.14829254150392	-229.5371551513672	642.9921875000001	22.64645195007325	-282.9426879882813	828.1503906250002	23.12067222595215	-222.0242767333985	841.4858398437502	34.03524398803712	-279.0904541015626	808.051208496094	14.27252006530762	-336.3349914550782	712.0460205078126	851.2354736328127	-77.27576446533205	850.1761474609377	485.1421813964845	-114.4790802001953	882.1993408203127	485.3612670898439	-236.1374816894532	820.3313598632815	444.7041625976564	-110.0266189575196	874.1022949218752	408.828582763672	-159.6327819824219	587.3348388671876	204.9637908935547	-123.7799148559571	616.0473632812501	190.9766998291016	-208.698715209961	522.6132812500001	190.3781890869141	-175.5176391601563	653.9819335937501	64.71500396728517	-179.4528198242188	661.9374389648439	80.18791961669923	-124.5245819091797	610.0257568359376	92.60528564453126	-82.85838317871095	675.0897216796876	1432.223510742188	-248.1050567626954	602.5255126953126	1203.635620117188	-275.7822265625001	838.688903808594	1121.206176757813	-263.3492431640626	803.5930175781252	1339.611083984375	-265.0920715332032	600.4718627929689	1235.384399414063	-366.9240722656251	633.7607421875001	1367.480834960938	-370.0354919433594	682.6036987304689	1372.363159179688	-436.8853149414064	741.5875244140626	1381.279296875	-450.1010742187501	715.8108520507814	1070.724365234375	-535.6880493164064	659.2944335937501	1066.047607421875	-484.0386352539064	675.4638671875001	1044.77392578125	-521.3013305664064	787.3023681640627	839.5982666015627	-468.6512145996095	771.320983886719	845.474304199219	-541.1871337890626	805.0032958984377	753.5098876953126	-461.8628234863282	763.6835327148439	775.1882934570315	-556.0988159179689	591.8099975585939	1227.68603515625	-182.9723663330078	633.9854736328126	1349.427368164063	-153.8080749511719	675.0134277343751	1348.830078125	-98.9694747924805	726.7340698242189	1353.247436523438	-76.68713378906251	702.7391357421876	1034.679077148438	-4.580684185028077	658.4020996093751	1019.646240234375	-73.35960388183595	666.9394531250001	1001.772644042969	-29.22222900390626	798.1475830078127	810.9192504882815	-63.79133987426759	759.9525146484376	803.4527587890627	3.991388082504273	846.3836669921877	738.5986938476564	-61.93360900878908	781.127136230469	735.8808593750001	14.49804592132569	
79	0.78	813.717712402344	932.9017333984377	-384.7336425781251	611.0159301757814	980.8253173828127	-316.8132934570313	609.1788940429689	978.5571289062502	-201.9457550048829	808.590515136719	936.3953857421877	-128.4738922119141	741.0218505859376	866.826843261719	-434.1944885253907	750.1523437500001	462.3918457031251	-357.2821655273438	736.6440429687501	469.8594970703126	-238.0833129882813	738.2149658203126	400.0140075683595	-354.2673339843751	789.2934570312502	406.6978454589845	-289.8566284179688	695.5651855468751	66.85730743408205	-320.0967712402344	699.7705078125001	83.3807830810547	-229.4241027832032	643.0300292968751	23.17869377136231	-282.9190368652344	828.2375488281252	22.55359077453614	-221.7280731201172	841.788269042969	33.72319412231446	-278.9795837402344	808.0386962890627	14.15952777862549	-336.2650451660157	726.3325195312501	852.5500488281252	-77.39376068115236	871.2702636718752	489.3555908203126	-116.8056564331055	903.1431274414065	490.4429016113282	-238.1529235839844	842.9641723632815	447.789764404297	-112.2235946655274	897.8062133789065	413.544158935547	-161.9169006347657	619.7776489257814	197.4048461914063	-124.6556472778321	648.3579711914064	185.2592926025391	-210.0554351806641	554.8697509765626	179.8538055419922	-175.7921752929688	693.4959716796876	61.55055236816408	-181.5160217285157	701.1161499023439	77.52309417724611	-126.6522979736328	648.8751831054689	86.35559844970705	-84.54109191894533	687.9328613281251	1432.846069335938	-249.1226654052735	615.1672973632814	1204.343017578125	-277.0012512207032	851.0667114257815	1121.775024414063	-264.0071105957032	816.3428955078127	1340.059204101563	-265.4650878906251	613.1755981445314	1236.329711914063	-368.4141235351563	646.8754272460939	1368.237915039063	-371.2111206054688	696.4169921875001	1373.020385742188	-437.6871643066407	754.9953002929689	1382.198974609375	-450.7097167968751	733.3576049804689	1071.800048828125	-538.1080322265626	677.0107421875001	1065.768432617188	-486.2320556640626	693.6491699218751	1044.602294921875	-523.6179809570314	812.301940917969	843.393005371094	-469.9886779785157	795.6968383789065	848.2152099609377	-542.4520874023439	833.9263916015627	758.3266601562501	-463.1223144531251	791.0299072265627	777.7239379882815	-557.0207519531251	604.2450561523439	1228.306030273438	-184.5026092529297	646.3902587890626	1350.031982421875	-155.1506042480469	687.1527709960939	1349.40625	-100.1442413330078	738.6650390625001	1353.879150390625	-77.55307769775392	709.4743652343751	1035.858642578125	-5.255713462829591	664.7786865234376	1021.692626953125	-74.28627014160158	673.2234497070314	1003.722473144531	-30.01506233215333	800.2539062500002	809.6924438476565	-62.82472610473634	761.4909057617189	803.5778808593752	4.770456314086915	846.5855102539065	736.2604980468751	-60.29982757568361	780.8221435546877	735.6463012695314	15.77482128143311	
80	0.79	825.2211914062502	932.984558105469	-385.7058410644532	622.8436279296876	981.331481933594	-316.4262390136719	621.6235961914064	979.2426757812502	-201.5720214843751	821.7224731445315	937.6499633789065	-129.6796417236328	752.1340332031251	866.6553955078127	-434.5494079589845	754.4579467773439	462.2318420410157	-357.0446472167969	739.9671020507814	469.8787536621095	-237.8931732177735	741.7986450195314	400.0023193359376	-354.0867614746094	792.7029418945315	406.2172241210939	-289.4803771972657	695.9456176757814	67.19458007812501	-319.9824829101563	700.0905761718751	83.69659423828126	-229.2776489257813	643.0892333984376	23.7786979675293	-282.8571166992188	828.3528442382815	22.01283264160157	-221.4432067871094	842.117370605469	33.46581268310548	-278.8531188964844	808.0604248046877	14.09160423278809	-336.1841430664063	740.5930175781251	853.6514282226565	-77.44313812255861	891.6693115234377	493.1452636718751	-119.1079940795899	923.1734008789065	495.1305541992189	-240.1739349365235	865.0430908203127	450.2889099121095	-114.4117584228516	920.824157714844	418.0113525390626	-164.2295227050782	652.9170532226564	188.9328918457032	-125.7145233154297	681.4332885742189	178.745346069336	-211.6112518310547	588.1096191406251	168.3324737548828	-176.3139190673828	733.8486938476564	58.12704467773439	-183.8443756103516	740.9017333984376	74.47317504882814	-129.0272369384766	688.4482421875001	79.57369232177736	-86.51651000976564	700.7747192382814	1433.263793945313	-250.1236114501954	627.8179321289064	1204.845581054688	-278.1311340332032	863.4973144531252	1122.166381835938	-264.6927490234376	829.0952758789065	1340.306396484375	-265.8089294433594	625.8065185546876	1237.077392578125	-369.8450012207032	659.9696655273439	1368.781127929688	-372.3472595214844	710.2216186523439	1373.44482421875	-438.4550170898439	768.3518066406252	1382.883666992188	-451.3277587890626	750.6861572265626	1072.741943359375	-540.5718383789064	694.6198730468751	1065.3330078125	-488.4460754394532	711.7274780273439	1044.297119140625	-525.9512329101564	837.2754516601565	847.3858032226565	-471.3587036132814	819.8377685546877	850.9655761718752	-543.6505126953126	862.8754882812502	763.5740966796876	-464.3701477050782	818.1317138671877	780.363220214844	-557.7237548828126	616.7353515625001	1228.735229492188	-185.9367065429688	658.8462524414064	1350.459228515625	-156.4334259033203	699.4105834960939	1349.797241210938	-101.2793655395508	750.7194213867189	1354.31103515625	-78.42103576660158	716.2555541992189	1036.948974609375	-5.956540107727052	671.2893066406251	1023.646362304688	-75.25747680664064	679.5512695312501	1005.598083496094	-30.84438133239747	802.4500732421877	808.5256347656252	-61.87365341186525	762.9661865234376	803.7232055664065	5.466167449951173	846.8546142578127	734.0701293945314	-58.57889556884767	780.4243164062502	735.4796752929689	16.96069717407227	
81	0.8	836.712585449219	932.839782714844	-386.5953369140626	634.7533569335939	981.6134033203127	-315.9545288085938	634.1033325195314	979.7285156250002	-201.1202087402344	834.8771972656252	938.5721435546877	-130.8329467773438	763.2207031250001	866.323181152344	-434.8806762695314	758.8573608398439	462.0601196289064	-356.7859191894532	743.5274658203126	469.9241027832032	-237.6677703857422	745.4964599609376	399.9856567382814	-353.8822631835938	796.2099609375002	405.7224731445314	-289.0949401855469	696.3641357421876	67.56784057617189	-319.8120117187501	700.4957885742189	84.0972366333008	-229.0904846191407	643.1696777343751	24.44677543640137	-282.7368469238282	828.496276855469	21.51522445678711	-221.1741638183594	842.4644165039065	33.26202774047852	-278.7134094238282	808.1007080078127	14.06788158416748	-336.0969543457032	754.7618408203126	854.5205078125002	-77.43177032470705	911.3394775390627	496.4240722656251	-121.3302154541016	942.2380371093752	499.3167419433595	-242.1485900878907	886.5192871093752	452.1429138183595	-116.557846069336	943.101989746094	422.155731201172	-166.5432891845703	686.8068847656251	179.7571716308594	-127.0025329589844	715.3206176757814	171.5921936035157	-213.3913269042969	622.4434814453126	156.0066223144532	-177.1540985107422	775.0252685546877	54.63853454589845	-186.3480529785157	781.2753906250002	71.26269531250001	-131.5462188720703	728.7551269531251	72.5714797973633	-88.71732330322267	713.6218261718751	1433.470825195313	-251.1066131591797	640.4800415039064	1205.138671875	-279.1612548828126	875.9829101562502	1122.356811523438	-265.3961791992188	841.8596191406252	1340.343872070313	-266.1427001953126	638.3702392578126	1237.618286132813	-371.2038879394532	673.0446166992189	1369.10546875	-373.4435729980469	723.9916381835939	1373.627319335938	-439.2003173828126	781.658874511719	1383.3134765625	-451.9566040039064	767.8330688476564	1073.522338867188	-543.0629272460939	712.1398315429689	1064.720581054688	-490.6856994628907	729.7216186523439	1043.840942382813	-528.2988891601564	862.159606933594	851.5375976562502	-472.7601623535157	843.7136230468752	853.6812744140627	-544.7761230468751	891.7420043945315	769.2085571289065	-465.6130981445314	844.9304809570315	783.0615844726565	-558.2125244140626	629.2858276367189	1228.971801757813	-187.2604217529297	671.3597412109376	1350.707763671875	-157.650131225586	711.7907714843751	1350.003540039063	-102.3726882934571	762.9102172851564	1354.537109375	-79.28584289550783	723.1071777343751	1037.948608398438	-6.68388605117798	678.0041503906251	1025.490478515625	-76.27109527587892	685.9611206054689	1007.392883300781	-31.70809555053712	804.7604980468752	807.4112548828127	-60.94924926757814	764.4270019531251	803.8877563476565	6.075966835021974	847.231140136719	732.0133666992189	-56.80636215209962	779.9934692382815	735.3741455078126	18.04494094848633	
